# Blender v2.80 (sub 75) OBJ File: 'polillaParticula.blend'
# www.blender.org
mtllib polillaParticula.mtl
o Cube
v 0.028225 0.018785 -0.303030
v 0.028225 -0.018785 -0.303030
v 0.028624 0.019051 0.241252
v 0.028624 -0.019051 0.241252
v -0.028225 0.018785 -0.303030
v -0.028225 -0.018785 -0.303030
v -0.028624 0.019051 0.241252
v -0.028624 -0.019051 0.241252
v -0.047828 -0.031832 -0.190181
v -0.044425 -0.029567 -0.128856
v 0.047828 0.031832 -0.190181
v 0.044425 0.029567 -0.128856
v -0.044425 0.029567 -0.128856
v -0.047828 0.031832 -0.190181
v 0.044425 -0.029567 -0.128856
v 0.047828 -0.031832 -0.190181
v -0.047878 -0.031865 -0.018396
v 0.047878 0.031865 -0.018396
v -0.047878 0.031865 -0.018396
v 0.047878 -0.031865 -0.018396
v -0.000000 -0.022031 -0.313102
v 0.033103 -0.000000 -0.313102
v -0.033642 0.000000 0.264862
v 0.033642 -0.000000 0.264862
v -0.033103 -0.000000 -0.313102
v -0.000000 0.022390 0.264862
v 0.000000 -0.022390 0.264862
v -0.040622 0.027036 -0.254383
v 0.000000 0.022031 -0.313102
v 0.040622 -0.027036 -0.254383
v -0.040622 -0.027036 -0.254383
v -0.046775 -0.031131 -0.151125
v -0.040940 -0.027247 0.127826
v 0.040622 0.027036 -0.254383
v 0.046775 0.031131 -0.151125
v 0.040940 0.027247 0.127826
v -0.046727 0.031099 -0.098458
v -0.046775 0.031131 -0.151125
v 0.046727 -0.031099 -0.098458
v 0.046775 -0.031131 -0.151125
v 0.065764 0.000000 -0.190181
v 0.061085 0.000000 -0.128856
v 0.000000 -0.043769 -0.190181
v 0.000000 -0.040655 -0.128856
v -0.061085 -0.000000 -0.128856
v -0.065764 -0.000000 -0.190181
v 0.000000 0.043769 -0.190181
v -0.000000 0.040655 -0.128856
v -0.046727 -0.031099 -0.098458
v 0.046727 0.031099 -0.098458
v -0.040940 0.027247 0.127826
v 0.040940 -0.027247 0.127826
v -0.000000 0.043814 -0.018396
v -0.065832 0.000000 -0.018396
v 0.000000 -0.043814 -0.018396
v 0.065832 0.000000 -0.018396
v 0.000000 0.000000 0.314408
v -0.055614 -0.000000 -0.255376
v -0.056062 0.000000 0.130154
v -0.000000 -0.037312 0.130154
v 0.000000 0.000000 -0.334238
v 0.055614 0.000000 -0.255376
v 0.064315 0.000000 -0.151125
v 0.000000 -0.037014 -0.255376
v -0.000000 -0.042805 -0.151125
v -0.064250 -0.000000 -0.098458
v -0.064315 -0.000000 -0.151125
v 0.000000 0.037014 -0.255376
v 0.000000 0.042805 -0.151125
v -0.000000 0.042761 -0.098458
v 0.000000 0.037312 0.130154
v 0.000000 -0.042761 -0.098458
v 0.064250 0.000000 -0.098458
v 0.056062 0.000000 0.130154
vt 0.375000 0.250000
vt 0.500000 0.250000
vt 0.500000 0.373007
vt 0.375000 0.373007
vt 0.625000 0.250000
vt 0.625000 0.373007
vt 0.625000 0.484060
vt 0.500000 0.484060
vt 0.375000 0.484060
vt 0.375000 0.693118
vt 0.500000 0.693118
vt 0.500000 0.718197
vt 0.375000 0.718197
vt 0.625000 0.693118
vt 0.625000 0.718197
vt 0.625000 0.750000
vt 0.500000 0.750000
vt 0.375000 0.750000
vt 0.500000 0.572340
vt 0.375000 0.572340
vt 0.625000 0.572340
vt 0.625000 0.631589
vt 0.500000 0.631589
vt 0.375000 0.631589
vt 0.375000 0.868411
vt 0.500000 0.868411
vt 0.500000 0.925667
vt 0.375000 0.925667
vt 0.625000 0.868411
vt 0.625000 0.925667
vt 0.625000 1.000000
vt 0.500000 1.000000
vt 0.375000 1.000000
vt 0.625000 0.500000
vt 0.750000 0.500000
vt 0.750000 0.625000
vt 0.625000 0.625000
vt 0.875000 0.500000
vt 0.875000 0.625000
vt 0.875000 0.750000
vt 0.750000 0.750000
vt 0.625000 0.750000
vt 0.125000 0.500000
vt 0.250000 0.500000
vt 0.250000 0.531803
vt 0.125000 0.531803
vt 0.375000 0.500000
vt 0.375000 0.531803
vt 0.375000 0.556882
vt 0.250000 0.556882
vt 0.125000 0.556882
vt 0.250000 0.570871
vt 0.125000 0.570871
vt 0.375000 0.570871
vt 0.375000 0.578847
vt 0.250000 0.578847
vt 0.125000 0.578847
vt 0.500000 0.750000
vt 0.500000 0.781803
vt 0.375000 0.781803
vt 0.625000 0.781803
vt 0.625000 0.806882
vt 0.500000 0.806882
vt 0.375000 0.806882
vt 0.500000 0.820871
vt 0.375000 0.820871
vt 0.625000 0.820871
vt 0.625000 0.828847
vt 0.500000 0.828847
vt 0.375000 0.828847
vt 0.500000 0.660265
vt 0.375000 0.660265
vt 0.625000 0.660265
vt 0.625000 0.671153
vt 0.500000 0.671153
vt 0.375000 0.671153
vt 0.500000 0.679129
vt 0.375000 0.679129
vt 0.625000 0.679129
vt 0.375000 0.000000
vt 0.500000 0.000000
vt 0.500000 0.031803
vt 0.375000 0.031803
vt 0.625000 0.000000
vt 0.625000 0.031803
vt 0.625000 0.056882
vt 0.500000 0.056882
vt 0.375000 0.056882
vt 0.500000 0.070871
vt 0.375000 0.070871
vt 0.625000 0.070871
vt 0.625000 0.078847
vt 0.500000 0.078847
vt 0.375000 0.078847
vt 0.500000 0.089735
vt 0.375000 0.089735
vt 0.625000 0.089735
vt 0.625000 0.118411
vt 0.500000 0.118411
vt 0.375000 0.118411
vt 0.500000 0.175667
vt 0.375000 0.175667
vt 0.625000 0.175667
vt 0.625000 0.250000
vt 0.500000 0.250000
vt 0.375000 0.250000
vt 0.500000 0.839735
vt 0.375000 0.839735
vt 0.625000 0.839735
vt 0.250000 0.589735
vt 0.125000 0.589735
vt 0.375000 0.589735
vt 0.375000 0.618411
vt 0.250000 0.618411
vt 0.125000 0.618411
vt 0.250000 0.675667
vt 0.125000 0.675667
vt 0.375000 0.675667
vt 0.375000 0.750000
vt 0.250000 0.750000
vt 0.125000 0.750000
vn 0.5083 -0.7638 0.3978
vn 0.5083 0.7638 0.3978
vn -0.5083 0.7638 0.3978
vn -0.5083 -0.7638 0.3978
vn -0.8639 -0.4855 -0.1339
vn -0.8639 0.4855 -0.1339
vn -0.8424 0.4403 -0.3106
vn -0.8424 -0.4403 -0.3106
vn -0.8776 -0.4591 0.1380
vn -0.8776 0.4591 0.1380
vn -0.8703 0.4892 0.0570
vn -0.8703 -0.4892 0.0570
vn -0.2414 -0.9695 0.0423
vn 0.2414 -0.9695 0.0423
vn 0.2246 -0.9692 0.1014
vn -0.2246 -0.9692 0.1014
vn -0.3913 -0.5880 -0.7079
vn -0.3913 0.5880 -0.7079
vn 0.3913 0.5880 -0.7079
vn 0.3913 -0.5880 -0.7079
vn 0.8424 -0.4403 -0.3106
vn 0.8424 0.4403 -0.3106
vn 0.8639 0.4855 -0.1339
vn 0.8639 -0.4855 -0.1339
vn 0.8708 -0.4906 0.0323
vn 0.8708 0.4906 0.0323
vn 0.8643 0.4870 0.1254
vn 0.8643 -0.4870 0.1254
vn -0.2194 -0.9475 -0.2325
vn 0.2194 -0.9475 -0.2325
vn 0.2403 -0.9656 -0.0996
vn -0.2403 -0.9656 -0.0996
vn -0.2421 -0.9700 0.0239
vn 0.2421 -0.9700 0.0239
vn 0.2411 -0.9660 0.0933
vn -0.2411 -0.9660 0.0933
vn -0.8711 -0.4908 -0.0172
vn -0.8711 0.4908 -0.0172
vn -0.8677 0.4889 -0.0903
vn -0.8677 -0.4889 -0.0903
vn -0.8643 -0.4870 0.1254
vn -0.8643 0.4870 0.1254
vn -0.8708 0.4906 0.0323
vn -0.8708 -0.4906 0.0323
vn 0.2194 0.9475 -0.2325
vn -0.2194 0.9475 -0.2325
vn -0.2403 0.9656 -0.0996
vn 0.2403 0.9656 -0.0996
vn 0.2421 0.9700 0.0239
vn -0.2421 0.9700 0.0239
vn -0.2411 0.9660 0.0933
vn 0.2411 0.9660 0.0933
vn 0.2416 0.9681 -0.0671
vn -0.2416 0.9681 -0.0671
vn -0.2421 0.9702 -0.0128
vn 0.2421 0.9702 -0.0128
vn 0.2414 0.9695 0.0423
vn -0.2414 0.9695 0.0423
vn -0.2246 0.9692 0.1014
vn 0.2246 0.9692 0.1014
vn -0.2416 -0.9681 -0.0671
vn 0.2416 -0.9681 -0.0671
vn 0.2421 -0.9702 -0.0128
vn -0.2421 -0.9702 -0.0128
vn 0.8677 -0.4889 -0.0903
vn 0.8677 0.4889 -0.0903
vn 0.8711 0.4908 -0.0172
vn 0.8711 -0.4908 -0.0172
vn 0.8703 -0.4892 0.0570
vn 0.8703 0.4892 0.0570
vn 0.8776 0.4591 0.1380
vn 0.8776 -0.4591 0.1380
usemtl Material
s off
f 4/1/1 24/2/1 57/3/1 27/4/1
f 24/2/2 3/5/2 26/6/2 57/3/2
f 57/3/3 26/6/3 7/7/3 23/8/3
f 27/4/4 57/3/4 23/8/4 8/9/4
f 9/10/5 46/11/5 58/12/5 31/13/5
f 46/11/6 14/14/6 28/15/6 58/12/6
f 58/12/7 28/15/7 5/16/7 25/17/7
f 31/13/8 58/12/8 25/17/8 6/18/8
f 8/9/9 23/8/9 59/19/9 33/20/9
f 23/8/10 7/7/10 51/21/10 59/19/10
f 59/19/11 51/21/11 19/22/11 54/23/11
f 33/20/12 59/19/12 54/23/12 17/24/12
f 17/25/13 55/26/13 60/27/13 33/28/13
f 55/26/14 20/29/14 52/30/14 60/27/14
f 60/27/15 52/30/15 4/31/15 27/32/15
f 33/28/16 60/27/16 27/32/16 8/33/16
f 6/34/17 25/35/17 61/36/17 21/37/17
f 25/35/18 5/38/18 29/39/18 61/36/18
f 61/36/19 29/39/19 1/40/19 22/41/19
f 21/37/20 61/36/20 22/41/20 2/42/20
f 2/43/21 22/44/21 62/45/21 30/46/21
f 22/44/22 1/47/22 34/48/22 62/45/22
f 62/45/23 34/48/23 11/49/23 41/50/23
f 30/46/24 62/45/24 41/50/24 16/51/24
f 16/51/25 41/50/25 63/52/25 40/53/25
f 41/50/26 11/49/26 35/54/26 63/52/26
f 63/52/27 35/54/27 12/55/27 42/56/27
f 40/53/28 63/52/28 42/56/28 15/57/28
f 6/18/29 21/58/29 64/59/29 31/60/29
f 21/58/30 2/42/30 30/61/30 64/59/30
f 64/59/31 30/61/31 16/62/31 43/63/31
f 31/60/32 64/59/32 43/63/32 9/64/32
f 9/64/33 43/63/33 65/65/33 32/66/33
f 43/63/34 16/62/34 40/67/34 65/65/34
f 65/65/35 40/67/35 15/68/35 44/69/35
f 32/66/36 65/65/36 44/69/36 10/70/36
f 17/24/37 54/23/37 66/71/37 49/72/37
f 54/23/38 19/22/38 37/73/38 66/71/38
f 66/71/39 37/73/39 13/74/39 45/75/39
f 49/72/40 66/71/40 45/75/40 10/76/40
f 10/76/41 45/75/41 67/77/41 32/78/41
f 45/75/42 13/74/42 38/79/42 67/77/42
f 67/77/43 38/79/43 14/14/43 46/11/43
f 32/78/44 67/77/44 46/11/44 9/10/44
f 1/80/45 29/81/45 68/82/45 34/83/45
f 29/81/46 5/84/46 28/85/46 68/82/46
f 68/82/47 28/85/47 14/86/47 47/87/47
f 34/83/48 68/82/48 47/87/48 11/88/48
f 11/88/49 47/87/49 69/89/49 35/90/49
f 47/87/50 14/86/50 38/91/50 69/89/50
f 69/89/51 38/91/51 13/92/51 48/93/51
f 35/90/52 69/89/52 48/93/52 12/94/52
f 12/94/53 48/93/53 70/95/53 50/96/53
f 48/93/54 13/92/54 37/97/54 70/95/54
f 70/95/55 37/97/55 19/98/55 53/99/55
f 50/96/56 70/95/56 53/99/56 18/100/56
f 18/100/57 53/99/57 71/101/57 36/102/57
f 53/99/58 19/98/58 51/103/58 71/101/58
f 71/101/59 51/103/59 7/104/59 26/105/59
f 36/102/60 71/101/60 26/105/60 3/106/60
f 10/70/61 44/69/61 72/107/61 49/108/61
f 44/69/62 15/68/62 39/109/62 72/107/62
f 72/107/63 39/109/63 20/29/63 55/26/63
f 49/108/64 72/107/64 55/26/64 17/25/64
f 15/57/65 42/56/65 73/110/65 39/111/65
f 42/56/66 12/55/66 50/112/66 73/110/66
f 73/110/67 50/112/67 18/113/67 56/114/67
f 39/111/68 73/110/68 56/114/68 20/115/68
f 20/115/69 56/114/69 74/116/69 52/117/69
f 56/114/70 18/113/70 36/118/70 74/116/70
f 74/116/71 36/118/71 3/119/71 24/120/71
f 52/117/72 74/116/72 24/120/72 4/121/72
o Plane.001
v -0.060561 -0.001245 -0.047862
v -0.625164 -0.081475 -0.318666
v -0.056097 -0.000289 -0.188456
v -0.442374 -0.051971 -0.412998
v -0.702048 -0.088928 0.168117
v -0.540352 -0.061018 0.276803
v -0.138447 -0.010903 -0.266771
v -0.159903 -0.013301 0.050928
v 0.060561 -0.001245 -0.047862
v 0.625164 -0.081475 -0.318666
v 0.056097 -0.000289 -0.188456
v 0.442374 -0.051971 -0.412998
v 0.702048 -0.088928 0.168117
v 0.540352 -0.061018 0.276803
v 0.138447 -0.010903 -0.266771
v 0.159903 -0.013301 0.050928
v -0.056107 -0.000486 -0.118007
v -0.680871 -0.088673 -0.078567
v -0.552138 -0.069325 -0.422207
v -0.070934 -0.002134 -0.226286
v -0.660624 -0.079569 0.286962
v -0.341831 -0.035426 0.168725
v -0.282481 -0.029832 -0.341780
v -0.077594 -0.003390 -0.008099
v -0.177112 -0.016381 -0.107455
v 0.056107 -0.000486 -0.118007
v 0.680871 -0.088673 -0.078567
v 0.552138 -0.069325 -0.422207
v 0.070934 -0.002134 -0.226286
v 0.660624 -0.079569 0.286962
v 0.341831 -0.035426 0.168725
v 0.282481 -0.029832 -0.341780
v 0.077594 -0.003390 -0.008099
v 0.177112 -0.016381 -0.107455
v -0.077504 -0.003265 -0.117117
v -0.440589 -0.052053 -0.083342
v 0.077504 -0.003265 -0.117117
v 0.440589 -0.052053 -0.083342
v -0.061813 0.008676 -0.047845
v -0.626710 -0.071595 -0.318689
v -0.057388 0.009627 -0.188430
v -0.443826 -0.042077 -0.412988
v -0.703595 -0.079050 0.167956
v -0.541777 -0.051122 0.276655
v -0.139766 -0.000990 -0.266744
v -0.161204 -0.003386 0.050850
v 0.061813 0.008676 -0.047845
v 0.626710 -0.071595 -0.318689
v 0.057388 0.009627 -0.188430
v 0.443826 -0.042077 -0.412988
v 0.703595 -0.079050 0.167956
v 0.541777 -0.051122 0.276655
v 0.139766 -0.000990 -0.266744
v 0.161204 -0.003386 0.050850
v -0.057380 0.009432 -0.117986
v -0.682418 -0.078794 -0.078667
v -0.553632 -0.059437 -0.422211
v -0.072234 0.007781 -0.226261
v -0.662109 -0.069681 0.286808
v -0.343209 -0.025522 0.168597
v -0.283869 -0.019929 -0.341759
v -0.078858 0.006530 -0.008120
v -0.178419 -0.006467 -0.107474
v 0.057380 0.009432 -0.117986
v 0.682418 -0.078794 -0.078667
v 0.553632 -0.059437 -0.422211
v 0.072234 0.007781 -0.226261
v 0.662109 -0.069681 0.286808
v 0.343209 -0.025522 0.168597
v 0.283869 -0.019929 -0.341759
v 0.078858 0.006530 -0.008120
v 0.178419 -0.006467 -0.107474
v -0.078783 0.006653 -0.117106
v -0.442027 -0.042158 -0.083409
v 0.078783 0.006653 -0.117106
v 0.442026 -0.042158 -0.083409
vt 0.000000 0.000000
vt 0.000000 0.000000
vt 0.000000 0.000000
vt 0.000000 0.000000
vt 0.000000 0.000000
vt 0.000000 0.000000
vt 0.000000 0.000000
vt 0.000000 0.000000
vt 0.000000 0.000000
vt 0.000000 0.000000
vt 0.000000 0.000000
vt 0.000000 0.000000
vt 0.000000 0.000000
vt 0.000000 0.000000
vt 0.000000 0.000000
vt 0.000000 0.000000
vt 0.000000 0.000000
vt 0.000000 0.000000
vt 0.000000 0.000000
vt 0.000000 0.000000
vt 0.000000 0.000000
vt 0.000000 0.000000
vt 0.000000 0.000000
vt 0.000000 0.000000
vt 0.000000 0.000000
vt 0.000000 0.000000
vt 0.000000 0.000000
vt 0.000000 0.000000
vt 0.000000 0.000000
vt 0.000000 0.000000
vt 0.000000 0.000000
vt 0.000000 0.000000
vt 0.000000 0.000000
vt 0.000000 0.000000
vt 0.000000 0.000000
vt 0.000000 0.000000
vt 0.000000 0.000000
vt 0.000000 0.000000
vt 0.000000 0.000000
vt 0.000000 0.000000
vt 0.000000 0.000000
vt 0.000000 0.000000
vt 0.000000 0.000000
vt 0.000000 0.000000
vt 0.000000 0.000000
vt 0.000000 0.000000
vt 0.000000 0.000000
vt 0.000000 0.000000
vt 0.000000 0.000000
vt 0.000000 0.000000
vt 0.000000 0.000000
vt 0.000000 0.000000
vt 0.000000 0.000000
vt 0.000000 0.000000
vt 0.000000 0.000000
vt 0.000000 0.000000
vt 0.000000 0.000000
vt 0.000000 0.000000
vt 0.000000 0.000000
vt 0.000000 0.000000
vt 0.000000 0.000000
vt 0.000000 0.000000
vt 0.000000 0.000000
vt 0.000000 0.000000
vt 0.000000 0.000000
vt 0.000000 0.000000
vt 0.000000 0.000000
vt 0.000000 0.000000
vt 0.000000 0.000000
vt 0.000000 0.000000
vt 0.000000 0.000000
vt 0.000000 0.000000
vt 0.000000 0.000000
vt 0.000000 0.000000
vt 0.000000 0.000000
vt 0.000000 0.000000
vn 0.1292 -0.9916 -0.0026
vn 0.1253 -0.9921 -0.0017
vn 0.1266 -0.9919 0.0029
vn 0.1303 -0.9915 -0.0025
vn 0.1332 -0.9911 -0.0030
vn 0.1319 -0.9912 0.0103
vn 0.1425 -0.9897 0.0149
vn 0.1547 -0.9878 0.0160
vn 0.1546 -0.9880 0.0023
vn 0.1452 -0.9894 -0.0010
vn -0.1292 -0.9916 -0.0026
vn -0.1303 -0.9915 -0.0025
vn -0.1266 -0.9919 0.0029
vn -0.1253 -0.9921 -0.0017
vn -0.1332 -0.9911 -0.0030
vn -0.1452 -0.9894 -0.0010
vn -0.1546 -0.9880 0.0023
vn -0.1547 -0.9878 0.0160
vn -0.1425 -0.9897 0.0149
vn -0.1319 -0.9912 0.0103
vn -0.1292 0.9916 0.0026
vn -0.1253 0.9921 0.0017
vn -0.1266 0.9919 -0.0029
vn -0.1303 0.9915 0.0025
vn -0.1332 0.9911 0.0030
vn -0.1319 0.9912 -0.0103
vn -0.1425 0.9897 -0.0149
vn -0.1547 0.9878 -0.0160
vn -0.1546 0.9880 -0.0023
vn -0.1452 0.9894 0.0010
vn 0.1292 0.9916 0.0026
vn 0.1303 0.9915 0.0025
vn 0.1266 0.9919 -0.0029
vn 0.1253 0.9921 0.0017
vn 0.1332 0.9911 0.0030
vn 0.1452 0.9894 0.0010
vn 0.1546 0.9880 -0.0023
vn 0.1547 0.9878 -0.0160
vn 0.1425 0.9897 -0.0149
vn 0.1319 0.9912 -0.0103
vn 0.9917 0.1282 0.0004
vn 0.9900 0.1259 0.0641
vn -0.9842 -0.1552 -0.0847
vn -0.9618 -0.1519 -0.2277
vn -0.8038 -0.1244 -0.5818
vn 0.0817 0.0125 -0.9966
vn 0.5064 0.0692 -0.8595
vn 0.9220 0.1215 -0.3676
vn 0.0800 0.0270 0.9964
vn -0.9318 -0.1376 0.3359
vn 0.5346 0.0810 0.8412
vn 0.4688 0.0786 0.8798
vn 0.3993 0.0587 -0.9149
vn 0.4542 0.0642 -0.8886
vn 0.9107 0.1156 0.3967
vn 0.5745 0.0784 0.8148
vn -0.9917 0.1282 0.0004
vn -0.9900 0.1259 0.0641
vn 0.9842 -0.1552 -0.0847
vn 0.9618 -0.1519 -0.2277
vn 0.8038 -0.1244 -0.5818
vn -0.0817 0.0125 -0.9966
vn -0.5064 0.0692 -0.8595
vn -0.9220 0.1215 -0.3676
vn -0.0800 0.0270 0.9964
vn 0.9318 -0.1376 0.3359
vn -0.5346 0.0810 0.8412
vn -0.4688 0.0786 0.8798
vn -0.3993 0.0587 -0.9149
vn -0.4542 0.0642 -0.8886
vn -0.9107 0.1156 0.3967
vn -0.5745 0.0784 0.8148
usemtl (null)
s off
f 77/122/73 91/123/73 109/124/73 94/125/73
f 91/123/74 75/126/74 98/127/74 109/124/74
f 109/124/75 98/127/75 82/128/75 99/129/75
f 94/125/76 109/124/76 99/129/76 81/130/76
f 81/130/77 99/129/77 110/131/77 97/132/77
f 82/128/78 96/133/78 110/131/78 99/129/78
f 80/134/79 95/135/79 110/131/79 96/133/79
f 79/136/80 92/137/80 110/131/80 95/135/80
f 76/138/81 93/139/81 110/131/81 92/137/81
f 78/140/82 97/132/82 110/131/82 93/139/82
f 85/141/83 103/142/83 111/143/83 100/144/83
f 103/142/84 89/145/84 108/146/84 111/143/84
f 111/143/85 108/146/85 90/147/85 107/148/85
f 100/144/86 111/143/86 107/148/86 83/149/86
f 89/145/87 106/150/87 112/151/87 108/146/87
f 86/152/88 102/153/88 112/151/88 106/150/88
f 84/154/89 101/155/89 112/151/89 102/153/89
f 87/156/90 104/157/90 112/151/90 101/155/90
f 88/158/91 105/159/91 112/151/91 104/157/91
f 90/147/92 108/146/92 112/151/92 105/159/92
f 115/160/93 132/161/93 147/162/93 129/163/93
f 129/163/94 147/162/94 136/164/94 113/165/94
f 147/162/95 137/166/95 120/167/95 136/164/95
f 132/161/96 119/168/96 137/166/96 147/162/96
f 119/168/97 135/169/97 148/170/97 137/166/97
f 120/167/98 137/166/98 148/170/98 134/171/98
f 118/172/99 134/171/99 148/170/99 133/173/99
f 117/174/100 133/173/100 148/170/100 130/175/100
f 114/176/101 130/175/101 148/170/101 131/177/101
f 116/178/102 131/177/102 148/170/102 135/169/102
f 123/179/103 138/180/103 149/181/103 141/182/103
f 141/182/104 149/181/104 146/183/104 127/184/104
f 149/181/105 145/185/105 128/186/105 146/183/105
f 138/180/106 121/187/106 145/185/106 149/181/106
f 127/184/107 146/183/107 150/188/107 144/189/107
f 124/190/108 144/189/108 150/188/108 140/191/108
f 122/192/109 140/191/109 150/188/109 139/193/109
f 125/194/110 139/193/110 150/188/110 142/195/110
f 126/196/111 142/195/111 150/188/111 143/197/111
f 128/186/112 143/197/112 150/188/112 146/183/112
f 91/123/113 77/122/113 115/160/113 129/163/113
f 75/126/114 91/123/114 129/163/114 113/165/114
f 92/137/115 79/136/115 117/174/115 130/175/115
f 76/138/116 92/137/116 130/175/116 114/176/116
f 93/139/117 76/138/117 114/176/117 131/177/117
f 78/140/118 93/139/118 131/177/118 116/178/118
f 94/125/119 81/130/119 119/168/119 132/161/119
f 77/122/120 94/125/120 132/161/120 115/160/120
f 95/135/121 80/134/121 118/172/121 133/173/121
f 79/136/122 95/135/122 133/173/122 117/174/122
f 96/133/123 82/128/123 120/167/123 134/171/123
f 80/134/124 96/133/124 134/171/124 118/172/124
f 97/132/125 78/140/125 116/178/125 135/169/125
f 81/130/126 97/132/126 135/169/126 119/168/126
f 98/127/127 75/126/127 113/165/127 136/164/127
f 82/128/128 98/127/128 136/164/128 120/167/128
f 85/141/129 100/144/129 138/180/129 123/179/129
f 100/144/130 83/149/130 121/187/130 138/180/130
f 87/156/131 101/155/131 139/193/131 125/194/131
f 101/155/132 84/154/132 122/192/132 139/193/132
f 84/154/133 102/153/133 140/191/133 122/192/133
f 102/153/134 86/152/134 124/190/134 140/191/134
f 89/145/135 103/142/135 141/182/135 127/184/135
f 103/142/136 85/141/136 123/179/136 141/182/136
f 88/158/137 104/157/137 142/195/137 126/196/137
f 104/157/138 87/156/138 125/194/138 142/195/138
f 90/147/139 105/159/139 143/197/139 128/186/139
f 105/159/140 88/158/140 126/196/140 143/197/140
f 86/152/141 106/150/141 144/189/141 124/190/141
f 106/150/142 89/145/142 127/184/142 144/189/142
f 83/149/143 107/148/143 145/185/143 121/187/143
f 107/148/144 90/147/144 128/186/144 145/185/144
